<svg xmlns="http://www.w3.org/2000/svg" width="800" height="400" viewBox="0 0 800 400">
  <rect width="800" height="400" fill="#ff9900" />
  <g transform="translate(400, 200)">
    <path d="M-150,-75 L0,-150 L150,-75 L150,75 L0,150 L-150,75 Z" fill="#ffffff" fill-opacity="0.1" />
    <path d="M-120,-60 L0,-120 L120,-60 L120,60 L0,120 L-120,60 Z" fill="#ffffff" fill-opacity="0.1" />
    <path d="M-90,-45 L0,-90 L90,-45 L90,45 L0,90 L-90,45 Z" fill="#ffffff" fill-opacity="0.1" />
    <path d="M-60,-30 L0,-60 L60,-30 L60,30 L0,60 L-60,30 Z" fill="#ffffff" fill-opacity="0.1" />
    <path d="M-30,-15 L0,-30 L30,-15 L30,15 L0,30 L-30,15 Z" fill="#ffffff" fill-opacity="0.1" />
  </g>
  <text x="400" y="180" font-family="Arial" font-size="48" font-weight="bold" text-anchor="middle" fill="#ffffff">AWS</text>
  <text x="400" y="240" font-family="Arial" font-size="32" text-anchor="middle" fill="#ffffff">Cost Optimization</text>
</svg>